

v  -0.6174 -0.5534 0.9702
v  -0.6174 -0.5534 -0.9983
v  0.5637 -0.5534 -0.9983
v  0.5637 -0.5534 0.9702
v  15.2227 114.5392 0.8846
v  16.1684 113.8316 0.8846
v  16.1501 113.8072 -1.0837
v  15.2045 114.5149 -1.0837
v  0.5092 98.1771 0.9702
v  -0.5694 98.6584 0.9702
v  0.5158 98.1920 -0.9983
v  -0.5628 98.6732 -0.9983
# 12 vertices

vn -0.5775 -0.5772 0.5773
vn -0.5775 -0.5772 -0.5773
vn 0.5775 -0.5772 -0.5773
vn 0.5775 -0.5772 0.5773
vn -0.0552 0.8131 0.5795
vn 0.8224 0.0640 0.5653
vn 0.8164 0.0532 -0.5751
vn -0.0627 0.8044 -0.5907
vn 0.5496 -0.2242 0.8047
vn -0.7173 0.2956 0.6309
vn 0.5482 -0.2304 -0.8040
vn -0.7174 0.2970 -0.6302
# 12 vertex normals

vt 1.0000 0.0000 0.0000
vt 1.0000 1.0000 0.0000
vt 0.0000 1.0000 0.0000
vt 0.0000 0.0000 0.0000
vt 1.0000 0.5000 0.0000
vt 0.0000 0.5000 0.0000
# 6 texture coords

g Box01
s 3
f 1/1/1 2/2/2 3/3/3 
f 3/3/3 4/4/4 1/1/1 
s 5
f 5/4/5 6/1/6 7/2/7 
f 7/2/7 8/3/8 5/4/5 
s 9
f 1/4/1 4/1/4 9/5/9 
f 9/5/9 10/6/10 1/4/1 
f 10/6/10 9/5/9 6/2/6 
f 6/2/6 5/3/5 10/6/10 
s 17
f 4/4/4 3/1/3 11/5/11 
f 11/5/11 9/6/9 4/4/4 
f 9/6/9 11/5/11 7/2/7 
f 7/2/7 6/3/6 9/6/9 
s 33
f 3/4/3 2/1/2 12/5/12 
f 12/5/12 11/6/11 3/4/3 
f 11/6/11 12/5/12 8/2/8 
f 8/2/8 7/3/7 11/6/11 
s 65
f 2/4/2 1/1/1 10/5/10 
f 10/5/10 12/6/12 2/4/2 
f 12/6/12 10/5/10 5/2/5 
f 5/2/5 8/3/8 12/6/12 
# 20 faces

