

v  19.6609 -0.0000 -0.0000
v  19.6609 -0.1626 -18.6332
v  19.6807 9.5937 -18.7183
v  19.6807 9.7563 -0.0000
v  7.1470 18.2254 -18.7937
v  7.1470 18.3879 -0.0160
v  7.1010 29.7644 -18.8944
v  7.1010 29.9270 -0.0000
v  -0.0115 32.6481 -18.6639
v  -0.0115 32.8084 -0.0000
v  -7.1971 29.7644 -18.8944
v  -7.1971 29.9270 -0.0000
v  -7.2065 18.2254 -18.7937
v  -7.2065 18.3879 -0.0160
v  -39.7813 9.5937 -18.7183
v  -39.7813 9.7563 0.0000
v  -39.8824 -0.1626 -18.6332
v  -39.8824 -0.0000 0.0000
v  18.1050 -0.2063 -23.6367
v  18.1247 9.5501 -23.7218
v  7.1470 18.1817 -23.7972
v  5.8270 28.6599 -22.9628
v  -5.9198 28.6599 -22.9628
v  -7.2065 18.1817 -23.7972
v  -38.0663 9.5501 -23.7218
v  -38.1674 -0.2063 -23.6367
v  7.1715 -0.3279 -37.5785
v  7.1912 9.4284 -37.6636
v  5.8649 18.1550 -26.8608
v  -5.9276 18.1550 -26.8608
v  -7.1796 9.4284 -37.6636
v  -7.2807 -0.3279 -37.5785
v  -0.2377 -0.3491 -39.9985
v  -0.1773 9.4073 -40.0836
v  -0.2120 18.7512 -29.2863
v  -0.2303 30.8006 -22.9043
# 36 vertices

vn 1.0000 -0.0020 0.0000
vn 0.9887 -0.0033 -0.1502
vn 0.8912 0.4356 -0.1270
vn 0.8847 0.4661 -0.0040
vn 0.8728 0.4874 -0.0248
vn 0.8854 0.4649 -0.0040
vn 0.8101 0.5557 -0.1868
vn 0.8266 0.5628 -0.0048
vn 0.0030 0.9818 -0.1897
vn 0.0018 1.0000 -0.0086
vn -0.8013 0.5747 -0.1665
vn -0.8265 0.5629 -0.0048
vn -0.7942 0.6077 -0.0080
vn -0.7940 0.6079 -0.0053
vn -0.8012 0.5827 -0.1364
vn -0.7878 0.6159 -0.0054
vn -0.9864 0.0088 -0.1642
vn -0.9999 0.0104 -0.0001
vn 0.8854 -0.0058 -0.4647
vn 0.8234 0.3883 -0.4138
vn 0.8299 0.5224 -0.1957
vn 0.6118 0.4856 -0.6244
vn -0.6019 0.5269 -0.6001
vn -0.7496 0.5886 -0.3026
vn -0.6423 0.5250 -0.5584
vn -0.7406 0.0018 -0.6719
vn 0.5735 -0.0087 -0.8192
vn 0.5214 0.3690 -0.7694
vn 0.5632 0.5878 -0.5809
vn -0.6596 0.4839 -0.5752
vn -0.3434 0.4321 -0.8339
vn -0.3689 -0.0043 -0.9295
vn -0.0093 -0.0082 -0.9999
vn -0.0123 0.3898 -0.9208
vn -0.0085 0.6324 -0.7746
vn -0.0018 0.7538 -0.6570
# 36 vertex normals

vt 0.9995 0.0005 0.0010
vt 0.5356 0.0005 0.0010
vt 0.5356 0.2976 0.0005
vt 0.9995 0.2976 0.0005
vt 0.0005 0.0005 0.2976
vt 0.0005 0.4644 0.2976
vt 0.3194 0.4644 0.5604
vt 0.3194 0.0005 0.5604
vt 0.9995 0.5604 0.3194
vt 0.5356 0.5604 0.3194
vt 0.5356 0.9118 0.3205
vt 0.9995 0.9118 0.3205
vt 0.3205 0.0005 0.9118
vt 0.3205 0.4644 0.9118
vt 0.5015 0.4580 0.9995
vt 0.5015 0.0005 0.9995
vt 0.6843 0.4644 0.9118
vt 0.6843 0.0005 0.9118
vt 0.0005 0.9118 0.6843
vt 0.4644 0.9118 0.6843
vt 0.4644 0.5604 0.6845
vt 0.0005 0.5604 0.6845
vt 0.6845 0.0005 0.5604
vt 0.6845 0.4644 0.5604
vt 0.9969 0.4644 0.2976
vt 0.9969 0.0005 0.2976
vt 0.0005 0.2976 0.9969
vt 0.4644 0.2976 0.9969
vt 0.4644 0.0005 0.9995
vt 0.0005 0.0005 0.9995
vt 0.4103 0.0005 0.0406
vt 0.4103 0.2976 0.0401
vt 0.0401 0.5897 0.2976
vt 0.3194 0.5897 0.5604
vt 0.4103 0.5604 0.3194
vt 0.4335 0.8792 0.3205
vt 0.3205 0.5665 0.8792
vt 0.6843 0.5665 0.8792
vt 0.5665 0.8792 0.6843
vt 0.5897 0.5604 0.6845
vt 0.6845 0.5897 0.5604
vt 0.9533 0.5897 0.2976
vt 0.5897 0.2976 0.9533
vt 0.5897 0.0005 0.9559
vt 0.0611 0.0005 0.3187
vt 0.0611 0.2976 0.3182
vt 0.3182 0.9389 0.2976
vt 0.3194 0.6664 0.5604
vt 0.3336 0.5604 0.3194
vt 0.6664 0.5604 0.6845
vt 0.9389 0.2976 0.6838
vt 0.6838 0.9389 0.2976
vt 0.9389 0.0005 0.6864
vt 0.6813 0.0005 0.9389
vt 0.4928 0.0005 0.9995
vt 0.4943 0.2976 0.9995
vt 0.6818 0.2976 0.9389
vt 0.5057 0.9995 0.2976
vt 0.5066 0.7270 0.5792
vt 0.6806 0.5604 0.6664
vt 0.4934 0.5792 0.7270
vt 0.4930 0.9444 0.5646
vt 0.6795 0.8792 0.5665
vt 0.5070 0.5646 0.9444
vt 0.3157 0.8792 0.5665
vt 0.3155 0.5604 0.6664
vt 0.6845 0.6664 0.5604
vt 0.3162 0.2976 0.9389
vt 0.3136 0.0005 0.9389
# 69 texture coords

g Plane01
s 1
f 1/1/1 2/2/2 3/3/3 
f 3/3/3 4/4/4 1/1/1 
s 3
f 4/5/4 3/6/3 5/7/5 
f 5/7/5 6/8/6 4/5/4 
s 1
f 6/9/6 5/10/5 7/11/7 
f 7/11/7 8/12/8 6/9/6 
s 5
f 8/13/8 7/14/7 9/15/9 
f 9/15/9 10/16/10 8/13/8 
s 1
f 10/16/10 9/15/9 11/17/11 
f 11/17/11 12/18/12 10/16/10 
s 11
f 12/19/12 11/20/11 13/21/13 
f 13/21/13 14/22/14 12/19/12 
s 1
f 14/23/14 13/24/13 15/25/15 
f 15/25/15 16/26/16 14/23/14 
s 3
f 16/27/16 15/28/15 17/29/17 
f 17/29/17 18/30/18 16/27/16 
s 1
f 2/2/2 19/31/19 20/32/20 
f 20/32/20 3/3/3 2/2/2 
s 43
f 3/6/3 20/33/20 21/34/21 
s 11
f 21/34/21 5/7/5 3/6/3 
s 1
f 5/10/5 21/35/21 22/36/22 
f 22/36/22 7/11/7 5/10/5 
s 5
f 7/14/7 22/37/22 9/15/9 
s 1
f 23/38/23 11/17/11 9/15/9 
s 11
f 11/20/11 23/39/23 24/40/24 
s 9
f 24/40/24 13/21/13 11/20/11 
s 1
f 13/24/13 24/41/24 25/42/25 
f 25/42/25 15/25/15 13/24/13 
s 3
f 15/28/15 25/43/25 26/44/26 
f 26/44/26 17/29/17 15/28/15 
s 1
f 19/31/19 27/45/27 28/46/28 
f 28/46/28 20/32/20 19/31/19 
s 233
f 20/33/20 28/47/28 29/48/29 
s 73
f 29/48/29 21/34/21 20/33/20 
s 1
f 21/35/21 29/49/29 22/36/22 
s 11
f 30/50/30 24/40/24 23/39/23 
s 3
f 24/40/24 30/50/30 31/51/31 
s 5
f 31/52/31 25/42/25 24/41/24 
s 9
f 25/43/25 31/51/31 32/53/32 
f 32/53/32 26/44/26 25/43/25 
s 5
f 27/54/27 33/55/33 34/56/34 
f 34/56/34 28/57/28 27/54/27 
s 227
f 28/47/28 34/58/34 35/59/35 
s 193
f 35/59/35 29/48/29 28/47/28 
s 131
f 29/60/29 35/61/35 36/62/36 
s 3
f 36/62/36 22/63/22 29/60/29 
s 5
f 22/37/22 36/64/36 9/15/9 
s 1
f 36/64/36 23/38/23 9/15/9 
s 273
f 23/65/23 36/62/36 35/61/35 
s 257
f 35/61/35 30/66/30 23/65/23 
s 273
f 30/67/30 35/59/35 34/58/34 
s 17
f 34/58/34 31/52/31 30/67/30 
s 9
f 31/68/31 34/56/34 33/55/33 
f 33/55/33 32/69/32 31/68/31 
# 54 faces

