# object Plane01

v  -19.6565 0.0000 -18.5206
v  -19.6565 0.0000 -0.0000
v  -19.6763 9.7567 -18.5206
v  -19.6763 9.7567 -0.0000
v  -7.1426 18.3887 -18.5206
v  -7.1426 18.3886 -0.0000
v  -7.0966 29.9281 -18.5206
v  -7.0966 29.9281 -0.0000
v  0.0159 32.8097 -18.2650
v  0.0159 32.8097 -0.0000
v  7.2015 29.9281 -18.5206
v  7.2015 29.9281 -0.0000
v  7.2109 18.3887 -18.5206
v  7.2109 18.3886 -0.0000
v  39.7857 9.7567 -18.5206
v  39.7857 9.7567 -0.0000
v  39.8868 0.0000 -18.5206
v  39.8868 0.0000 -0.0000
v  -18.1006 0.0000 -23.5242
v  -18.1203 9.7567 -23.5242
v  -7.1426 18.3887 -23.5242
v  -5.8226 28.8592 -22.5985
v  5.9242 28.8592 -22.5985
v  7.2109 18.3887 -23.5242
v  38.0707 9.7567 -23.5242
v  38.1718 0.0000 -23.5242
v  -7.1671 0.0000 -37.4666
v  -7.1868 9.7567 -37.4666
v  -5.8605 18.3887 -26.5880
v  5.9320 18.3887 -26.5880
v  7.1840 9.7567 -37.4666
v  7.2851 0.0000 -37.4666
v  0.2421 0.0000 -39.8867
v  0.1817 9.7567 -39.8867
v  0.2164 19.0061 -29.0081
v  0.2347 30.9993 -22.5212
# 36 vertices

vn -0.9887 -0.0020 -0.1502
vn -1.0000 -0.0020 0.0000
vn -0.8912 0.4366 -0.1232
vn -0.8857 0.4643 0.0000
vn -0.8728 0.4876 -0.0206
vn -0.8843 0.4670 0.0000
vn -0.8101 0.5573 -0.1820
vn -0.8282 0.5604 0.0000
vn -0.0030 0.9834 -0.1812
vn -0.0018 1.0000 0.0000
vn 0.8013 0.5761 -0.1615
vn 0.8281 0.5606 0.0000
vn 0.8936 0.4487 -0.0123
vn 0.8872 0.4613 0.0000
vn 0.8842 0.4446 -0.1435
vn 0.8850 0.4655 -0.0000
vn 0.9864 0.0102 -0.1642
vn 0.9999 0.0104 -0.0000
vn -0.8854 -0.0018 -0.4648
vn -0.8234 0.3919 -0.4104
vn -0.8299 0.5241 -0.1911
vn -0.6118 0.4910 -0.6202
vn 0.6019 0.5321 -0.5955
vn 0.8583 0.4506 -0.2454
vn 0.8135 0.4138 -0.4087
vn 0.8825 0.0091 -0.4701
vn -0.5735 -0.0015 -0.8192
vn -0.5214 0.3757 -0.7662
vn -0.5631 0.5928 -0.5757
vn 0.6596 0.4889 -0.5709
vn 0.5257 0.3937 -0.7541
vn 0.5872 0.0061 -0.8094
vn 0.0093 0.0005 -1.0000
vn 0.0123 0.3978 -0.9174
vn 0.0085 0.6391 -0.7691
vn 0.0018 0.7596 -0.6504
# 36 vertex normals

vt 0.5356 0.0005 0.0010
vt 0.9995 0.0005 0.0010
vt 0.5356 0.2976 0.0005
vt 0.9995 0.2976 0.0005
vt 0.0005 0.4644 0.2976
vt 0.0005 0.0005 0.2976
vt 0.3194 0.4644 0.5604
vt 0.3194 0.0005 0.5604
vt 0.5356 0.5604 0.3194
vt 0.9995 0.5604 0.3194
vt 0.5356 0.9118 0.3205
vt 0.9995 0.9118 0.3205
vt 0.3205 0.4644 0.9118
vt 0.3205 0.0005 0.9118
vt 0.5015 0.4580 0.9995
vt 0.5015 0.0005 0.9995
vt 0.6843 0.4644 0.9118
vt 0.6843 0.0005 0.9118
vt 0.4644 0.9118 0.6843
vt 0.0005 0.9118 0.6843
vt 0.4644 0.5604 0.6845
vt 0.0005 0.5604 0.6845
vt 0.6845 0.4644 0.5604
vt 0.6845 0.0005 0.5604
vt 0.9969 0.4644 0.2976
vt 0.9969 0.0005 0.2976
vt 0.4644 0.2976 0.9969
vt 0.0005 0.2976 0.9969
vt 0.4644 0.0005 0.9995
vt 0.0005 0.0005 0.9995
vt 0.4103 0.0005 0.0406
vt 0.4103 0.2976 0.0401
vt 0.0401 0.5897 0.2976
vt 0.3194 0.5897 0.5604
vt 0.4103 0.5604 0.3194
vt 0.4335 0.8792 0.3205
vt 0.3205 0.5665 0.8792
vt 0.6843 0.5665 0.8792
vt 0.5665 0.8792 0.6843
vt 0.5897 0.5604 0.6845
vt 0.6845 0.5897 0.5604
vt 0.9533 0.5897 0.2976
vt 0.5897 0.2976 0.9533
vt 0.5897 0.0005 0.9559
vt 0.0611 0.0005 0.3187
vt 0.0611 0.2976 0.3182
vt 0.3182 0.9389 0.2976
vt 0.3194 0.6664 0.5604
vt 0.3336 0.5604 0.3194
vt 0.6664 0.5604 0.6845
vt 0.9389 0.2976 0.6838
vt 0.6838 0.9389 0.2976
vt 0.9389 0.0005 0.6864
vt 0.4928 0.0005 0.9995
vt 0.6813 0.0005 0.9389
vt 0.4943 0.2976 0.9995
vt 0.6818 0.2976 0.9389
vt 0.5057 0.9995 0.2976
vt 0.5066 0.7270 0.5792
vt 0.4934 0.5792 0.7270
vt 0.6806 0.5604 0.6664
vt 0.4930 0.9444 0.5646
vt 0.6795 0.8792 0.5665
vt 0.5070 0.5646 0.9444
vt 0.3157 0.8792 0.5665
vt 0.3155 0.5604 0.6664
vt 0.6845 0.6664 0.5604
vt 0.3162 0.2976 0.9389
vt 0.3136 0.0005 0.9389
# 69 texture coords

g Plane01
s 1
f 1/1/1 2/2/2 3/3/3 
f 4/4/4 3/3/3 2/2/2 
f 3/5/3 4/6/4 5/7/5 
f 6/8/6 5/7/5 4/6/4 
f 5/9/5 6/10/6 7/11/7 
f 8/12/8 7/11/7 6/10/6 
f 7/13/7 8/14/8 9/15/9 
f 10/16/10 9/15/9 8/14/8 
f 9/15/9 10/16/10 11/17/11 
f 12/18/12 11/17/11 10/16/10 
f 11/19/11 12/20/12 13/21/13 
f 14/22/14 13/21/13 12/20/12 
f 13/23/13 14/24/14 15/25/15 
f 16/26/16 15/25/15 14/24/14 
f 15/27/15 16/28/16 17/29/17 
f 18/30/18 17/29/17 16/28/16 
f 19/31/19 1/1/1 20/32/20 
f 3/3/3 20/32/20 1/1/1 
f 20/33/20 3/5/3 21/34/21 
f 5/7/5 21/34/21 3/5/3 
f 21/35/21 5/9/5 22/36/22 
f 7/11/7 22/36/22 5/9/5 
f 22/37/22 7/13/7 9/15/9 
f 11/17/11 23/38/23 9/15/9 
f 23/39/23 11/19/11 24/40/24 
f 13/21/13 24/40/24 11/19/11 
f 24/41/24 13/23/13 25/42/25 
f 15/25/15 25/42/25 13/23/13 
f 25/43/25 15/27/15 26/44/26 
f 17/29/17 26/44/26 15/27/15 
f 27/45/27 19/31/19 28/46/28 
f 20/32/20 28/46/28 19/31/19 
f 28/47/28 20/33/20 29/48/29 
f 21/34/21 29/48/29 20/33/20 
f 29/49/29 21/35/21 22/36/22 
f 24/40/24 30/50/30 23/39/23 
f 30/50/30 24/40/24 31/51/31 
f 25/42/25 31/52/31 24/41/24 
f 31/51/31 25/43/25 32/53/32 
f 26/44/26 32/53/32 25/43/25 
f 33/54/33 27/55/27 34/56/34 
f 28/57/28 34/56/34 27/55/27 
f 34/58/34 28/47/28 35/59/35 
f 29/48/29 35/59/35 28/47/28 
f 35/60/35 29/61/29 36/62/36 
f 22/63/22 36/62/36 29/61/29 
f 36/64/36 22/37/22 9/15/9 
f 23/38/23 36/64/36 9/15/9 
f 36/62/36 23/65/23 35/60/35 
f 30/66/30 35/60/35 23/65/23 
f 35/59/35 30/67/30 34/58/34 
f 31/52/31 34/58/34 30/67/30 
f 34/56/34 31/68/31 33/54/33 
f 32/69/32 33/54/33 31/68/31 
# 54 faces

