# object Box01

v  74.6918 -12.2736 2.1077
v  74.6918 -12.2736 -1.8293
v  78.6288 -12.2736 -1.8293
v  78.6288 -12.2736 2.1077
v  74.6918 145.2067 2.1077
v  78.6288 145.2067 2.1077
v  78.6288 145.2067 -1.8293
v  74.6918 145.2067 -1.8293
v  -7.0857 114.4663 1.7162
v  -7.0857 114.4663 -1.4334
v  77.3404 114.4663 -1.4334
v  77.3404 114.4663 1.7162
v  -7.0857 117.6159 1.7162
v  77.3404 117.6159 1.7162
v  77.3404 117.6159 -1.4334
v  -7.0857 117.6159 -1.4334
v  1.3177 116.9739 1.1256
v  1.3177 116.9739 -0.8429
v  77.5933 136.5198 -0.8429
v  77.5933 136.5198 1.1256
v  0.8291 118.8808 1.1256
v  77.1047 138.4267 1.1256
v  77.1047 138.4267 -0.8429
v  0.8291 118.8808 -0.8429
# 24 vertices

vn -0.5774 -0.5774 0.5774
vn -0.5774 -0.5774 -0.5774
vn 0.5774 -0.5774 -0.5774
vn 0.5774 -0.5774 0.5774
vn -0.5774 0.5774 0.5774
vn 0.5774 0.5774 0.5774
vn 0.5774 0.5774 -0.5774
vn -0.5774 0.5774 -0.5774
vn -0.4160 -0.7026 0.5774
vn -0.4160 -0.7026 -0.5774
vn 0.7026 -0.4160 -0.5774
vn 0.7026 -0.4160 0.5774
vn -0.7026 0.4160 0.5774
vn 0.4160 0.7026 0.5774
vn 0.4160 0.7026 -0.5774
vn -0.7026 0.4160 -0.5774
# 16 vertex normals

vt 1.0000 0.0000 0.0000
vt 1.0000 1.0000 0.0000
vt 0.0000 1.0000 0.0000
vt 0.0000 0.0000 0.0000
# 4 texture coords

g Box01
s 3
f 1/1/1 2/2/2 3/3/3 
f 3/3/3 4/4/4 1/1/1 
s 5
f 5/4/5 6/1/6 7/2/7 
f 7/2/7 8/3/8 5/4/5 
s 9
f 1/4/1 4/1/4 6/2/6 
f 6/2/6 5/3/5 1/4/1 
s 17
f 4/4/4 3/1/3 7/2/7 
f 7/2/7 6/3/6 4/4/4 
s 33
f 3/4/3 2/1/2 8/2/8 
f 8/2/8 7/3/7 3/4/3 
s 65
f 2/4/2 1/1/1 5/2/5 
f 5/2/5 8/3/8 2/4/2 
s 3
f 9/1/1 10/2/2 11/3/3 
f 11/3/3 12/4/4 9/1/1 
s 5
f 13/4/5 14/1/6 15/2/7 
f 15/2/7 16/3/8 13/4/5 
s 9
f 9/4/1 12/1/4 14/2/6 
f 14/2/6 13/3/5 9/4/1 
s 17
f 12/4/4 11/1/3 15/2/7 
f 15/2/7 14/3/6 12/4/4 
s 33
f 11/4/3 10/1/2 16/2/8 
f 16/2/8 15/3/7 11/4/3 
s 65
f 10/4/2 9/1/1 13/2/5 
f 13/2/5 16/3/8 10/4/2 
s 3
f 17/1/9 18/2/10 19/3/11 
f 19/3/11 20/4/12 17/1/9 
s 5
f 21/4/13 22/1/14 23/2/15 
f 23/2/15 24/3/16 21/4/13 
s 9
f 17/4/9 20/1/12 22/2/14 
f 22/2/14 21/3/13 17/4/9 
s 17
f 20/4/12 19/1/11 23/2/15 
f 23/2/15 22/3/14 20/4/12 
s 33
f 19/4/11 18/1/10 24/2/16 
f 24/2/16 23/3/15 19/4/11 
s 65
f 18/4/10 17/1/9 21/2/13 
f 21/2/13 24/3/16 18/4/10 
# 36 faces

#
# object Cylinder01
#

v  0.1657 114.4690 0.1450
v  1.3297 114.4690 0.5720
v  1.4044 114.4690 0.1450
v  1.1146 114.4690 0.9474
v  0.7850 114.4690 1.2260
v  0.3808 114.4690 1.3743
v  -0.0493 114.4690 1.3743
v  -0.4536 114.4690 1.2260
v  -0.7831 114.4690 0.9474
v  -0.9982 114.4690 0.5720
v  -1.0729 114.4690 0.1450
v  -0.9982 114.4690 -0.2819
v  -0.7831 114.4690 -0.6573
v  -0.4536 114.4690 -0.9360
v  -0.0493 114.4690 -1.0842
v  0.3808 114.4690 -1.0842
v  0.7850 114.4690 -0.9360
v  1.1146 114.4690 -0.6573
v  1.3297 114.4690 -0.2819
v  0.7439 113.5688 0.3584
v  0.7810 113.5688 0.1450
v  0.6370 113.5688 0.5461
v  0.4734 113.5688 0.6853
v  0.2726 113.5688 0.7594
v  0.0589 113.5688 0.7594
v  -0.1419 113.5688 0.6853
v  -0.3056 113.5688 0.5461
v  -0.4124 113.5688 0.3584
v  -0.4495 113.5688 0.1450
v  -0.4124 113.5688 -0.0683
v  -0.3056 113.5688 -0.2560
v  -0.1419 113.5688 -0.3953
v  0.0589 113.5688 -0.4694
v  0.2726 113.5688 -0.4694
v  0.4733 113.5688 -0.3953
v  0.6370 113.5688 -0.2560
v  0.7439 113.5688 -0.0683
v  1.3297 112.6687 0.5720
v  1.4044 112.6687 0.1450
v  1.1146 112.6687 0.9474
v  0.7850 112.6687 1.2260
v  0.3808 112.6687 1.3743
v  -0.0493 112.6687 1.3743
v  -0.4536 112.6687 1.2260
v  -0.7831 112.6687 0.9474
v  -0.9982 112.6687 0.5720
v  -1.0729 112.6687 0.1450
v  -0.9982 112.6687 -0.2819
v  -0.7831 112.6687 -0.6573
v  -0.4536 112.6687 -0.9360
v  -0.0493 112.6687 -1.0842
v  0.3808 112.6687 -1.0842
v  0.7850 112.6687 -0.9360
v  1.1146 112.6687 -0.6573
v  1.3297 112.6687 -0.2819
v  0.7439 111.7685 0.3584
v  0.7810 111.7685 0.1450
v  0.6370 111.7685 0.5461
v  0.4734 111.7685 0.6853
v  0.2726 111.7685 0.7594
v  0.0589 111.7685 0.7594
v  -0.1419 111.7685 0.6853
v  -0.3056 111.7685 0.5461
v  -0.4124 111.7685 0.3584
v  -0.4495 111.7685 0.1450
v  -0.4124 111.7685 -0.0683
v  -0.3056 111.7685 -0.2560
v  -0.1419 111.7685 -0.3953
v  0.0589 111.7685 -0.4694
v  0.2726 111.7685 -0.4694
v  0.4733 111.7685 -0.3953
v  0.6370 111.7685 -0.2560
v  0.7439 111.7685 -0.0683
v  1.3297 110.8683 0.5720
v  1.4044 110.8683 0.1450
v  1.1146 110.8683 0.9474
v  0.7850 110.8683 1.2260
v  0.3808 110.8683 1.3743
v  -0.0493 110.8683 1.3743
v  -0.4536 110.8683 1.2260
v  -0.7831 110.8683 0.9474
v  -0.9982 110.8683 0.5720
v  -1.0729 110.8683 0.1450
v  -0.9982 110.8683 -0.2819
v  -0.7831 110.8683 -0.6573
v  -0.4536 110.8683 -0.9360
v  -0.0493 110.8683 -1.0842
v  0.3808 110.8683 -1.0842
v  0.7850 110.8683 -0.9360
v  1.1146 110.8683 -0.6573
v  1.3297 110.8683 -0.2819
v  0.7439 109.9681 0.3584
v  0.7810 109.9681 0.1450
v  0.6370 109.9681 0.5461
v  0.4734 109.9681 0.6853
v  0.2726 109.9681 0.7594
v  0.0589 109.9681 0.7594
v  -0.1419 109.9681 0.6853
v  -0.3056 109.9681 0.5461
v  -0.4124 109.9681 0.3584
v  -0.4495 109.9681 0.1450
v  -0.4124 109.9681 -0.0683
v  -0.3056 109.9681 -0.2560
v  -0.1419 109.9681 -0.3953
v  0.0589 109.9681 -0.4694
v  0.2726 109.9681 -0.4694
v  0.4733 109.9681 -0.3953
v  0.6370 109.9681 -0.2560
v  0.7439 109.9681 -0.0683
v  0.1657 109.9681 0.1450
# 110 vertices

vn 0.0000 1.0000 -0.0000
vn 0.9031 -0.4294 -0.0000
vn 0.9403 -0.0002 0.3404
vn 1.0000 -0.0000 -0.0000
vn 0.8489 -0.4290 0.3088
vn 0.7677 -0.0003 0.6408
vn 0.6924 -0.4284 0.5806
vn 0.5020 -0.0003 0.8649
vn 0.4521 -0.4277 0.7827
vn 0.1745 -0.0001 0.9847
vn 0.1570 -0.4273 0.8903
vn -0.1745 0.0001 0.9847
vn -0.1571 -0.4275 0.8903
vn -0.5020 0.0003 0.8649
vn -0.4521 -0.4280 0.7826
vn -0.7677 0.0003 0.6408
vn -0.6922 -0.4287 0.5806
vn -0.9403 0.0002 0.3404
vn -0.8488 -0.4292 0.3088
vn -1.0000 -0.0000 0.0000
vn -0.9031 -0.4294 0.0000
vn -0.9403 -0.0002 -0.3404
vn -0.8489 -0.4290 -0.3088
vn -0.7677 -0.0003 -0.6408
vn -0.6924 -0.4284 -0.5806
vn -0.5020 -0.0003 -0.8649
vn -0.4521 -0.4277 -0.7827
vn -0.1745 -0.0001 -0.9847
vn -0.1570 -0.4273 -0.8903
vn 0.1745 0.0001 -0.9847
vn 0.1571 -0.4275 -0.8903
vn 0.5020 0.0003 -0.8649
vn 0.4521 -0.4280 -0.7826
vn 0.7677 0.0003 -0.6408
vn 0.6922 -0.4287 -0.5806
vn 0.9403 0.0002 -0.3404
vn 0.8488 -0.4292 -0.3088
vn 0.9398 0.0001 0.3419
vn 0.7662 0.0002 0.6426
vn 0.5002 0.0001 0.8659
vn 0.1737 0.0001 0.9848
vn -0.1737 -0.0001 0.9848
vn -0.5002 -0.0001 0.8659
vn -0.7662 -0.0002 0.6426
vn -0.9398 -0.0001 0.3419
vn -0.9398 0.0001 -0.3419
vn -0.7662 0.0002 -0.6426
vn -0.5002 0.0001 -0.8659
vn -0.1737 0.0001 -0.9848
vn 0.1737 -0.0001 -0.9848
vn 0.5002 -0.0001 -0.8659
vn 0.7662 -0.0002 -0.6426
vn 0.9398 -0.0001 -0.3419
vn 1.0000 0.0000 -0.0000
vn -1.0000 0.0000 0.0000
vn 0.8492 -0.4293 0.3074
vn 0.9031 -0.4293 -0.0001
vn 0.6935 -0.4288 0.5789
vn 0.4536 -0.4281 0.7816
vn 0.1577 -0.4275 0.8901
vn -0.1579 -0.4273 0.8902
vn -0.4538 -0.4276 0.7818
vn -0.6937 -0.4282 0.5791
vn -0.8494 -0.4289 0.3076
vn -0.9031 -0.4293 0.0001
vn -0.8492 -0.4293 -0.3074
vn -0.6935 -0.4288 -0.5789
vn -0.4536 -0.4281 -0.7816
vn -0.1577 -0.4275 -0.8901
vn 0.1579 -0.4273 -0.8902
vn 0.4538 -0.4276 -0.7818
vn 0.6937 -0.4282 -0.5791
vn 0.8494 -0.4289 -0.3076
vn 0.0000 -1.0000 -0.0000
# 74 vertex normals

vt 0.5000 0.0000 0.0000
vt 0.6944 0.0000 1.0000
vt 0.7500 0.0000 1.0000
vt 0.6389 0.0000 1.0000
vt 0.5833 0.0000 1.0000
vt 0.5278 0.0000 1.0000
vt 0.4722 0.0000 1.0000
vt 0.4167 0.0000 1.0000
vt 0.3611 0.0000 1.0000
vt 0.3056 0.0000 1.0000
vt 0.2500 0.0000 1.0000
vt 0.1944 0.0000 1.0000
vt 0.1389 0.0000 1.0000
vt 0.0833 0.0000 1.0000
vt 0.0278 0.0000 1.0000
vt -0.0278 0.0000 1.0000
vt 0.9167 0.0000 1.0000
vt 0.9722 0.0000 1.0000
vt 0.8611 0.0000 1.0000
vt 0.8056 0.0000 1.0000
vt 0.6944 0.2000 1.0000
vt 0.7500 0.2000 1.0000
vt 0.6389 0.2000 1.0000
vt 0.5833 0.2000 1.0000
vt 0.5278 0.2000 1.0000
vt 0.4722 0.2000 1.0000
vt 0.4167 0.2000 1.0000
vt 0.3611 0.2000 1.0000
vt 0.3056 0.2000 1.0000
vt 0.2500 0.2000 1.0000
vt 0.1944 0.2000 1.0000
vt 0.1389 0.2000 1.0000
vt 0.0833 0.2000 1.0000
vt 0.0278 0.2000 1.0000
vt -0.0278 0.2000 1.0000
vt 0.9167 0.2000 1.0000
vt 0.9722 0.2000 1.0000
vt 0.8611 0.2000 1.0000
vt 0.8056 0.2000 1.0000
vt 0.6944 0.4000 1.0000
vt 0.7500 0.4000 1.0000
vt 0.6389 0.4000 1.0000
vt 0.5833 0.4000 1.0000
vt 0.5278 0.4000 1.0000
vt 0.4722 0.4000 1.0000
vt 0.4167 0.4000 1.0000
vt 0.3611 0.4000 1.0000
vt 0.3056 0.4000 1.0000
vt 0.2500 0.4000 1.0000
vt 0.1944 0.4000 1.0000
vt 0.1389 0.4000 1.0000
vt 0.0833 0.4000 1.0000
vt 0.0278 0.4000 1.0000
vt -0.0278 0.4000 1.0000
vt 0.9167 0.4000 1.0000
vt 0.9722 0.4000 1.0000
vt 0.8611 0.4000 1.0000
vt 0.8056 0.4000 1.0000
vt 0.6944 0.6000 1.0000
vt 0.7500 0.6000 1.0000
vt 0.6389 0.6000 1.0000
vt 0.5833 0.6000 1.0000
vt 0.5278 0.6000 1.0000
vt 0.4722 0.6000 1.0000
vt 0.4167 0.6000 1.0000
vt 0.3611 0.6000 1.0000
vt 0.3056 0.6000 1.0000
vt 0.2500 0.6000 1.0000
vt 0.1944 0.6000 1.0000
vt 0.1389 0.6000 1.0000
vt 0.0833 0.6000 1.0000
vt 0.0278 0.6000 1.0000
vt -0.0278 0.6000 1.0000
vt 0.9167 0.6000 1.0000
vt 0.9722 0.6000 1.0000
vt 0.8611 0.6000 1.0000
vt 0.8056 0.6000 1.0000
vt 0.6944 0.8000 1.0000
vt 0.7500 0.8000 1.0000
vt 0.6389 0.8000 1.0000
vt 0.5833 0.8000 1.0000
vt 0.5278 0.8000 1.0000
vt 0.4722 0.8000 1.0000
vt 0.4167 0.8000 1.0000
vt 0.3611 0.8000 1.0000
vt 0.3056 0.8000 1.0000
vt 0.2500 0.8000 1.0000
vt 0.1944 0.8000 1.0000
vt 0.1389 0.8000 1.0000
vt 0.0833 0.8000 1.0000
vt 0.0278 0.8000 1.0000
vt -0.0278 0.8000 1.0000
vt 0.9167 0.8000 1.0000
vt 0.9722 0.8000 1.0000
vt 0.8611 0.8000 1.0000
vt 0.8056 0.8000 1.0000
vt 0.6944 1.0000 1.0000
vt 0.7500 1.0000 1.0000
vt 0.6389 1.0000 1.0000
vt 0.5833 1.0000 1.0000
vt 0.5278 1.0000 1.0000
vt 0.4722 1.0000 1.0000
vt 0.4167 1.0000 1.0000
vt 0.3611 1.0000 1.0000
vt 0.3056 1.0000 1.0000
vt 0.2500 1.0000 1.0000
vt 0.1944 1.0000 1.0000
vt 0.1389 1.0000 1.0000
vt 0.0833 1.0000 1.0000
vt 0.0278 1.0000 1.0000
vt -0.0278 1.0000 1.0000
vt 0.9167 1.0000 1.0000
vt 0.9722 1.0000 1.0000
vt 0.8611 1.0000 1.0000
vt 0.8056 1.0000 1.0000
vt 0.5000 1.0000 0.0000
# 116 texture coords

g Cylinder01
s 1
f 25/5/17 26/6/17 27/7/17 
f 25/5/17 28/8/17 26/6/17 
f 25/5/17 29/9/17 28/8/17 
f 25/5/17 30/10/17 29/9/17 
f 25/5/17 31/11/17 30/10/17 
f 25/5/17 32/12/17 31/11/17 
f 25/5/17 33/13/17 32/12/17 
f 25/5/17 34/14/17 33/13/17 
f 25/5/17 35/15/17 34/14/17 
f 25/5/17 36/16/17 35/15/17 
f 25/5/17 37/17/17 36/16/17 
f 25/5/17 38/18/17 37/17/17 
f 25/5/17 39/19/17 38/18/17 
f 25/5/17 40/20/17 39/19/17 
f 25/5/17 41/21/17 40/22/17 
f 25/5/17 42/23/17 41/21/17 
f 25/5/17 43/24/17 42/23/17 
f 25/5/17 27/7/17 43/24/17 
s 8
f 27/7/18 44/25/19 45/26/20 
f 27/7/18 26/6/21 44/25/19 
f 26/6/21 46/27/22 44/25/19 
f 26/6/21 28/8/23 46/27/22 
f 28/8/23 47/28/24 46/27/22 
f 28/8/23 29/9/25 47/28/24 
f 29/9/25 48/29/26 47/28/24 
f 29/9/25 30/10/27 48/29/26 
f 30/10/27 49/30/28 48/29/26 
f 30/10/27 31/11/29 49/30/28 
f 31/11/29 50/31/30 49/30/28 
f 31/11/29 32/12/31 50/31/30 
f 32/12/31 51/32/32 50/31/30 
f 32/12/31 33/13/33 51/32/32 
f 33/13/33 52/33/34 51/32/32 
f 33/13/33 34/14/35 52/33/34 
f 34/14/35 53/34/36 52/33/34 
f 34/14/35 35/15/37 53/34/36 
f 35/15/37 54/35/38 53/34/36 
f 35/15/37 36/16/39 54/35/38 
f 36/16/39 55/36/40 54/35/38 
f 36/16/39 37/17/41 55/36/40 
f 37/17/41 56/37/42 55/36/40 
f 37/17/41 38/18/43 56/37/42 
f 38/18/43 57/38/44 56/37/42 
f 38/18/43 39/19/45 57/38/44 
f 39/19/45 58/39/46 57/38/44 
f 39/19/45 40/20/47 58/39/46 
f 40/22/47 59/40/48 58/41/46 
f 40/22/47 41/21/49 59/40/48 
f 41/21/49 60/42/50 59/40/48 
f 41/21/49 42/23/51 60/42/50 
f 42/23/51 61/43/52 60/42/50 
f 42/23/51 43/24/53 61/43/52 
f 43/24/53 45/26/20 61/43/52 
f 43/24/53 27/7/18 45/26/20 
f 45/26/20 62/44/54 63/45/20 
f 45/26/20 44/25/19 62/44/54 
f 44/25/19 64/46/55 62/44/54 
f 44/25/19 46/27/22 64/46/55 
f 46/27/22 65/47/56 64/46/55 
f 46/27/22 47/28/24 65/47/56 
f 47/28/24 66/48/57 65/47/56 
f 47/28/24 48/29/26 66/48/57 
f 48/29/26 67/49/58 66/48/57 
f 48/29/26 49/30/28 67/49/58 
f 49/30/28 68/50/59 67/49/58 
f 49/30/28 50/31/30 68/50/59 
f 50/31/30 69/51/60 68/50/59 
f 50/31/30 51/32/32 69/51/60 
f 51/32/32 70/52/61 69/51/60 
f 51/32/32 52/33/34 70/52/61 
f 52/33/34 71/53/36 70/52/61 
f 52/33/34 53/34/36 71/53/36 
f 53/34/36 72/54/62 71/53/36 
f 53/34/36 54/35/38 72/54/62 
f 54/35/38 73/55/63 72/54/62 
f 54/35/38 55/36/40 73/55/63 
f 55/36/40 74/56/64 73/55/63 
f 55/36/40 56/37/42 74/56/64 
f 56/37/42 75/57/65 74/56/64 
f 56/37/42 57/38/44 75/57/65 
f 57/38/44 76/58/66 75/57/65 
f 57/38/44 58/39/46 76/58/66 
f 58/41/46 77/59/67 76/60/66 
f 58/41/46 59/40/48 77/59/67 
f 59/40/48 78/61/68 77/59/67 
f 59/40/48 60/42/50 78/61/68 
f 60/42/50 79/62/69 78/61/68 
f 60/42/50 61/43/52 79/62/69 
f 61/43/52 63/45/20 79/62/69 
f 61/43/52 45/26/20 63/45/20 
f 63/45/20 80/63/19 81/64/70 
f 63/45/20 62/44/54 80/63/19 
f 62/44/54 82/65/22 80/63/19 
f 62/44/54 64/46/55 82/65/22 
f 64/46/55 83/66/24 82/65/22 
f 64/46/55 65/47/56 83/66/24 
f 65/47/56 84/67/26 83/66/24 
f 65/47/56 66/48/57 84/67/26 
f 66/48/57 85/68/28 84/67/26 
f 66/48/57 67/49/58 85/68/28 
f 67/49/58 86/69/30 85/68/28 
f 67/49/58 68/50/59 86/69/30 
f 68/50/59 87/70/32 86/69/30 
f 68/50/59 69/51/60 87/70/32 
f 69/51/60 88/71/34 87/70/32 
f 69/51/60 70/52/61 88/71/34 
f 70/52/61 89/72/71 88/71/34 
f 70/52/61 71/53/36 89/72/71 
f 71/53/36 90/73/38 89/72/71 
f 71/53/36 72/54/62 90/73/38 
f 72/54/62 91/74/40 90/73/38 
f 72/54/62 73/55/63 91/74/40 
f 73/55/63 92/75/42 91/74/40 
f 73/55/63 74/56/64 92/75/42 
f 74/56/64 93/76/44 92/75/42 
f 74/56/64 75/57/65 93/76/44 
f 75/57/65 94/77/46 93/76/44 
f 75/57/65 76/58/66 94/77/46 
f 76/60/66 95/78/48 94/79/46 
f 76/60/66 77/59/67 95/78/48 
f 77/59/67 96/80/50 95/78/48 
f 77/59/67 78/61/68 96/80/50 
f 78/61/68 97/81/52 96/80/50 
f 78/61/68 79/62/69 97/81/52 
f 79/62/69 81/64/70 97/81/52 
f 79/62/69 63/45/20 81/64/70 
f 81/64/70 98/82/54 99/83/70 
f 81/64/70 80/63/19 98/82/54 
f 80/63/19 100/84/55 98/82/54 
f 80/63/19 82/65/22 100/84/55 
f 82/65/22 101/85/56 100/84/55 
f 82/65/22 83/66/24 101/85/56 
f 83/66/24 102/86/57 101/85/56 
f 83/66/24 84/67/26 102/86/57 
f 84/67/26 103/87/58 102/86/57 
f 84/67/26 85/68/28 103/87/58 
f 85/68/28 104/88/59 103/87/58 
f 85/68/28 86/69/30 104/88/59 
f 86/69/30 105/89/60 104/88/59 
f 86/69/30 87/70/32 105/89/60 
f 87/70/32 106/90/61 105/89/60 
f 87/70/32 88/71/34 106/90/61 
f 88/71/34 107/91/71 106/90/61 
f 88/71/34 89/72/71 107/91/71 
f 89/72/71 108/92/62 107/91/71 
f 89/72/71 90/73/38 108/92/62 
f 90/73/38 109/93/63 108/92/62 
f 90/73/38 91/74/40 109/93/63 
f 91/74/40 110/94/64 109/93/63 
f 91/74/40 92/75/42 110/94/64 
f 92/75/42 111/95/65 110/94/64 
f 92/75/42 93/76/44 111/95/65 
f 93/76/44 112/96/66 111/95/65 
f 93/76/44 94/77/46 112/96/66 
f 94/79/46 113/97/67 112/98/66 
f 94/79/46 95/78/48 113/97/67 
f 95/78/48 114/99/68 113/97/67 
f 95/78/48 96/80/50 114/99/68 
f 96/80/50 115/100/69 114/99/68 
f 96/80/50 97/81/52 115/100/69 
f 97/81/52 99/83/70 115/100/69 
f 97/81/52 81/64/70 99/83/70 
f 99/83/70 116/101/72 117/102/73 
f 99/83/70 98/82/54 116/101/72 
f 98/82/54 118/103/74 116/101/72 
f 98/82/54 100/84/55 118/103/74 
f 100/84/55 119/104/75 118/103/74 
f 100/84/55 101/85/56 119/104/75 
f 101/85/56 120/105/76 119/104/75 
f 101/85/56 102/86/57 120/105/76 
f 102/86/57 121/106/77 120/105/76 
f 102/86/57 103/87/58 121/106/77 
f 103/87/58 122/107/78 121/106/77 
f 103/87/58 104/88/59 122/107/78 
f 104/88/59 123/108/79 122/107/78 
f 104/88/59 105/89/60 123/108/79 
f 105/89/60 124/109/80 123/108/79 
f 105/89/60 106/90/61 124/109/80 
f 106/90/61 125/110/81 124/109/80 
f 106/90/61 107/91/71 125/110/81 
f 107/91/71 126/111/82 125/110/81 
f 107/91/71 108/92/62 126/111/82 
f 108/92/62 127/112/83 126/111/82 
f 108/92/62 109/93/63 127/112/83 
f 109/93/63 128/113/84 127/112/83 
f 109/93/63 110/94/64 128/113/84 
f 110/94/64 129/114/85 128/113/84 
f 110/94/64 111/95/65 129/114/85 
f 111/95/65 130/115/86 129/114/85 
f 111/95/65 112/96/66 130/115/86 
f 112/98/66 131/116/87 130/117/86 
f 112/98/66 113/97/67 131/116/87 
f 113/97/67 132/118/88 131/116/87 
f 113/97/67 114/99/68 132/118/88 
f 114/99/68 133/119/89 132/118/88 
f 114/99/68 115/100/69 133/119/89 
f 115/100/69 117/102/73 133/119/89 
f 115/100/69 99/83/70 117/102/73 
s 1
f 134/120/90 117/102/90 116/101/90 
f 134/120/90 116/101/90 118/103/90 
f 134/120/90 118/103/90 119/104/90 
f 134/120/90 119/104/90 120/105/90 
f 134/120/90 120/105/90 121/106/90 
f 134/120/90 121/106/90 122/107/90 
f 134/120/90 122/107/90 123/108/90 
f 134/120/90 123/108/90 124/109/90 
f 134/120/90 124/109/90 125/110/90 
f 134/120/90 125/110/90 126/111/90 
f 134/120/90 126/111/90 127/112/90 
f 134/120/90 127/112/90 128/113/90 
f 134/120/90 128/113/90 129/114/90 
f 134/120/90 129/114/90 130/115/90 
f 134/120/90 130/117/90 131/116/90 
f 134/120/90 131/116/90 132/118/90 
f 134/120/90 132/118/90 133/119/90 
f 134/120/90 133/119/90 117/102/90 
# 216 faces

